<?xml version="1.0" encoding="utf-8"?>
<svg width="90px" height="72px" viewBox="0 0 90 72" version="1.1" xmlns:xlink="http://www.w3.org/1999/xlink" xmlns="http://www.w3.org/2000/svg">
  <defs>
    <path d="M90 0L90 0L90 72L0 72L0 0L90 0Z" id="path_1" />
    <clipPath id="clip_1">
      <use xlink:href="#path_1" clip-rule="evenodd" fill-rule="evenodd" />
    </clipPath>
  </defs>
  <g id="Cairn-2e-Compatible">
    <path d="M90 0L90 0L90 72L0 72L0 0L90 0Z" id="Cairn-2e-Compatible" fill="none" stroke="none" />
    <path d="M49.702 7.765C50.132 8.146 50.486 8.515 50.473 9.101C50.465 9.469 50.252 9.73 50.04 9.994C49.7331 10.3769 49.732 10.376 49.3643 10.0632L49.364 10.063C48.826 9.605 48.753 8.96 49.183 8.401C49.345 8.191 49.518 7.99 49.702 7.765ZM51.836 15.231C51.761 15.318 51.657 15.384 51.544 15.301C51.09 14.968 50.648 14.62 50.503 14.034C50.392 13.587 50.416 13.139 50.67 12.755C50.934 12.355 51.258 11.996 51.558 11.62C51.619 11.544 51.689 11.516 51.773 11.595C52.231 12.026 52.678 12.464 52.789 13.124C52.807 13.232 52.815 13.343 52.828 13.452C52.82 13.817 52.717 14.148 52.493 14.434C52.281 14.705 52.06 14.969 51.836 15.231ZM48.738 14.769C48.512 15.13 48.223 15.452 47.955 15.786C47.862 15.902 47.732 15.937 47.613 15.83C47.362 15.605 47.088 15.394 46.883 15.13C46.452 14.575 46.445 13.774 46.852 13.193C47.09 12.853 47.372 12.544 47.63 12.217C47.733 12.087 47.823 12.077 47.947 12.198C48.393 12.635 48.823 13.079 48.917 13.735C48.93 13.825 48.936 13.916 48.946 14.006L48.985 14.021C48.906 14.273 48.873 14.553 48.738 14.769ZM49.32 26.778C49.669 27.044 49.851 27.008 50.185 26.717C50.249 26.661 50.316 26.607 50.369 26.543C50.934 25.854 51.506 25.17 52.057 24.469C52.699 23.652 52.989 22.707 53.008 21.53C52.963 20.46 52.606 19.348 51.838 18.406C51.317 17.767 50.728 17.182 50.15 16.592C49.832 16.268 49.753 16.265 49.461 16.612C48.718 17.492 47.961 18.365 47.279 19.291C46.081 20.915 46.034 23.335 47.378 25.005C47.935 25.696 48.622 26.245 49.32 26.778ZM48.535 22.099C48.846 21.666 49.195 21.26 49.537 20.85C49.714 20.638 49.759 20.642 49.955 20.837C50.347 21.228 50.756 21.605 50.997 22.118C51.159 22.463 51.266 22.823 51.258 23.135C51.257 23.674 51.128 24.099 50.849 24.469C50.591 24.812 50.326 25.151 50.041 25.472C49.773 25.774 49.681 25.774 49.38 25.51C49.112 25.275 48.828 25.046 48.606 24.77C47.98 23.995 47.954 22.909 48.535 22.099ZM13.235 48.67C13.321 48.782 13.358 48.888 13.295 49.008C13.09 49.398 12.913 49.81 12.66 50.168C12.145 50.896 11.587 51.594 11.049 52.306C10.967 52.415 10.888 52.529 10.827 52.65C10.71 52.884 10.891 53.171 11.147 53.171C11.2328 53.171 11.3186 53.1713 11.4044 53.1717C11.6446 53.1727 11.8848 53.1736 12.125 53.167C12.2 53.165 12.295 53.133 12.346 53.081C12.632 52.788 12.921 52.495 13.185 52.182C13.693 51.58 14.186 50.965 14.684 50.354C14.773 50.245 14.851 50.232 14.977 50.318C15.566 50.714 16.16 51.103 16.758 51.486C17.431 51.917 18.073 52.398 18.859 52.627C20.713 53.167 22.602 53.288 24.507 53.054C27.125 52.732 29.18 51.385 30.864 49.419C31.253 48.965 31.516 48.434 31.584 47.821C31.614 47.548 31.526 47.344 31.297 47.209C31.107 47.097 30.906 47.002 30.705 46.911C30.219 46.692 29.705 46.522 29.25 46.25C28.9182 46.0518 28.5922 46.0545 28.2374 46.0573C28.2019 46.0576 28.1661 46.0579 28.13 46.058C28.12 47.408 27.676 48.577 26.87 49.622C25.294 51.668 22.828 51.719 21.201 50.571C19.754 49.551 18.922 48.126 18.615 46.379C18.461 45.507 18.684 44.791 19.233 44.097C20.527 42.463 21.768 40.787 23.039 39.133C25.056 36.509 27.089 33.897 29.095 31.264C29.951 30.14 30.763 28.982 31.582 27.831C31.731 27.622 31.833 27.375 31.929 27.135C31.964 27.046 31.957 26.896 31.903 26.825C31.775 26.657 31.615 26.51 31.452 26.374C31.332 26.274 31.18 26.277 31.051 26.371C30.884 26.494 30.719 26.622 30.566 26.762C30.172 27.124 29.777 27.484 29.268 27.684C29.054 27.768 28.849 27.777 28.625 27.693C27.583 27.303 26.537 26.925 25.491 26.544C24.387 26.142 23.26 25.897 22.072 25.936C20.279 25.995 18.602 26.446 17.048 27.343C15.335 28.332 13.977 29.704 12.829 31.296C11.437 33.226 10.585 35.371 10.334 37.741C10.165 39.338 10.233 40.931 10.523 42.509C10.941 44.774 11.828 46.839 13.235 48.67ZM18.209 37.345C18.28 35.354 18.499 33.384 19.13 31.481C19.437 30.555 19.825 29.668 20.497 28.938C21.403 27.955 22.759 27.642 23.88 28.174C24.702 28.564 25.124 29.275 25.345 30.121C25.593 31.07 25.428 31.978 25.049 32.864C24.571 33.981 23.895 34.977 23.157 35.932C22.536 36.736 21.867 37.504 21.253 38.313C20.769 38.95 20.334 39.624 19.882 40.285C19.47 40.888 18.977 41.408 18.37 41.817C18.343 41.813 18.316 41.809 18.289 41.806C18.244 41.101 18.172 40.396 18.16 39.69C18.1499 38.974 18.1759 38.258 18.2019 37.5427C18.2042 37.4768 18.2066 37.4109 18.209 37.345ZM52.4069 33.339C52.4085 33.4543 52.4101 33.5709 52.417 33.688L47.156 33.688C47.1344 33.5705 47.1284 33.4495 47.1224 33.3283C47.1091 33.0618 47.0958 32.795 46.917 32.566C46.677 32.259 46.436 31.954 46.166 31.612C46.29 31.5 46.419 31.374 46.557 31.259C47.494 30.482 48.433 29.707 49.373 28.934C49.473 28.852 49.587 28.785 49.698 28.718C49.962 28.558 50.092 28.563 50.332 28.763C50.45 28.862 50.567 28.972 50.656 29.098C51.418 30.173 52.02 31.329 52.342 32.612C52.4002 32.8429 52.4036 33.0879 52.4069 33.339ZM55.5459 50.2076C55.5458 45.7334 55.5457 41.2592 55.549 36.785C55.549 36.502 55.485 36.244 55.35 36.001C55.099 35.547 54.802 35.129 54.348 34.767C54.538 34.565 54.694 34.351 54.894 34.193C55.568 33.661 56.233 33.112 56.948 32.639C57.797 32.077 58.177 32.152 58.9 32.879C59.354 33.337 59.807 33.796 60.245 34.27C60.387 34.424 60.508 34.42 60.645 34.308C60.952 34.056 61.261 33.806 61.552 33.537C61.959 33.162 62.352 32.771 62.747 32.383C62.848 32.284 62.924 32.275 63.045 32.363C63.596 32.763 64.125 33.182 64.512 33.754C64.79 34.163 64.985 34.601 65.068 35.094C65.126 35.436 65.056 35.735 64.845 35.992C64.454 36.471 64.054 36.943 63.64 37.402C63.427 37.638 63.185 37.851 62.941 38.055C62.676 38.276 62.555 38.272 62.295 38.037C62.122 37.881 61.978 37.693 61.811 37.529C61.492 37.217 61.165 36.911 60.842 36.603C60.821 36.616 60.799 36.63 60.778 36.643L60.778 53.16L55.546 53.16L55.546 52.916C55.546 52.0181 55.546 51.1203 55.5459 50.2224L55.5459 50.2076ZM33.737 51.103C34.109 51.765 34.551 52.375 35.122 52.884C35.301 53.044 35.482 53.083 35.705 52.949C36.358 52.557 37.021 52.183 37.676 51.794C38.253 51.451 38.839 51.128 39.502 50.908C39.641 51.158 39.761 51.405 39.909 51.632C40.175 52.039 40.428 52.462 40.744 52.829C41.12 53.267 41.408 53.304 41.892 52.991C42.717 52.458 43.521 51.891 44.329 51.332C44.456 51.244 44.559 51.121 44.67 51.011C44.765 50.918 44.783 50.82 44.704 50.698C44.616 50.562 44.548 50.413 44.472 50.269C44.223 49.801 44.116 49.313 44.119 48.773C44.135 44.804 44.119 40.835 44.136 36.865C44.139 36.189 43.934 35.617 43.548 35.087C43.041 34.39 42.406 33.818 41.727 33.299C41.3 32.972 40.838 32.689 40.381 32.403C40.184 32.28 39.97 32.273 39.758 32.419C39.615 32.518 39.449 32.586 39.29 32.66C38.183 33.179 37.079 33.707 35.965 34.209C35.492 34.422 34.997 34.473 34.481 34.297C34.209 34.204 33.908 34.175 33.618 34.164C33.328 34.153 33.141 34.331 33.071 34.604C32.962 35.034 33.12 35.419 33.508 35.636C33.955 35.887 34.44 35.99 34.941 35.895C35.406 35.807 35.863 35.67 36.319 35.539C36.585 35.462 36.829 35.474 37.074 35.602C37.683 35.919 38.273 36.271 38.761 36.755C38.977 36.969 39.154 37.243 39.282 37.52C39.444 37.872 39.379 38.102 39.054 38.316C38.66 38.576 38.243 38.81 37.814 39.007C37.137 39.317 36.482 39.657 35.884 40.106C34.981 40.784 34.34 41.686 33.727 42.611C33.37 43.149 33.045 43.705 32.896 44.345C32.674 45.299 32.638 46.266 32.686 47.238C32.754 48.603 33.064 49.904 33.737 51.103ZM66.6568 49.7062C66.6563 45.4438 66.6558 41.1814 66.663 36.919C66.664 36.41 66.515 35.975 66.219 35.576C66.075 35.383 65.937 35.185 65.788 34.993C65.696 34.879 65.718 34.79 65.823 34.712C66.001 34.58 66.173 34.436 66.366 34.331C67.39 33.775 68.414 33.22 69.449 32.687C69.94 32.434 70.207 32.493 70.567 32.918C70.818 33.214 71.02 33.552 71.243 33.872C71.425 34.134 71.594 34.406 71.788 34.658C71.994 34.925 72.085 34.964 72.391 34.831C73.041 34.549 73.685 34.252 74.317 33.932C75.153 33.508 75.977 33.059 76.801 32.613C76.979 32.517 77.145 32.518 77.293 32.635C77.476 32.779 77.658 32.932 77.807 33.109C78.561 34.002 78.952 35.02 78.947 36.207C78.9394 38.2914 78.94 40.3756 78.9406 42.4597L78.9406 42.4655C78.9413 44.4859 78.9419 46.5063 78.935 48.527C78.932 49.399 79.068 50.223 79.47 50.999C79.539 51.132 79.577 51.283 79.66 51.405C79.828 51.654 79.76 51.869 79.577 52.054C79.248 52.387 78.927 52.734 78.561 53.023C77.933 53.519 77.285 53.993 76.624 54.444C76.138 54.776 76.008 54.744 75.616 54.298C74.905 53.489 74.292 52.619 74.053 51.542C74.01 51.347 73.983 51.143 73.983 50.943C73.979 46.68 73.98 42.417 73.979 38.154C73.978 37.46 73.724 36.845 73.35 36.276C73.274 36.161 73.157 36.062 73.039 35.986C72.79 35.825 72.533 35.849 72.325 36.059C72.058 36.328 71.879 36.632 71.88 37.041C71.8857 41.361 71.8854 45.681 71.8851 50.001C71.8851 50.961 71.885 51.921 71.885 52.881L71.885 53.16L66.657 53.16L66.657 52.915C66.657 51.8475 66.6569 50.78 66.6568 49.7125L66.6568 49.7062ZM47.244 35.757C47.221 35.314 47.199 34.889 47.176 34.449L52.344 34.449C52.326 34.81 52.308 35.159 52.288 35.539C50.61 35.611 48.938 35.684 47.244 35.757ZM51.642 48.438C51.574 49.803 51.514 51.169 51.441 52.534C51.418 52.971 51.329 53.398 51.14 53.799C50.873 54.367 50.429 54.664 49.8 54.674C49.178 54.685 48.706 54.43 48.416 53.868C48.146 53.345 48.08 52.774 48.051 52.201C47.939 49.984 47.839 47.766 47.731 45.549C47.617 43.208 47.497 40.868 47.38 38.527C47.356 38.046 47.334 37.565 47.31 37.063C47.354 37.055 47.386 37.046 47.417 37.045C49.011 36.975 50.605 36.904 52.224 36.833C52.205 37.22 52.186 37.601 52.167 37.981C52.094 39.451 52.022 40.921 51.948 42.391C51.846 44.407 51.743 46.422 51.642 48.438ZM37.884 41.159C38.141 40.777 38.497 40.486 38.923 40.294C38.981 40.268 39.04 40.247 39.127 40.212C39.165 43.223 39.203 46.209 39.241 49.194C39.069 49.246 38.917 49.315 38.76 49.33C38.648 49.341 38.499 49.314 38.419 49.243C38.24 49.086 38.064 48.91 37.941 48.709C37.308 47.676 36.925 46.552 36.726 45.356C36.464 43.772 37.032 42.426 37.884 41.159Z" id="Group" fill="#000000" fill-rule="evenodd" stroke="none" clip-path="url(#clip_1)" />
  </g>
</svg>